.
 
http://www.scenetime.com    -  Hottest private tracker on the net. !!!

New release on http://www.scenetime.com

        Seed back for speed


...................................NFO:.................................................








































          
          
              
              
                    
                    
                    
                    

The.Oregonian.2011.VODRiP.XviD.AC3-SiC

Poster:
[IMG]http://img214.imageshack.us/img214/143/oregonian.jpg[/IMG]

IMDB Link:
http://www.imdb.com/title/tt1686327/

Description:
Leaving behind a desultory and possibly abusive existence, a beautiful farm girl, known only as The Oregonian, rushes headlong into an unknown future. 

MediaInfo:
General
Complete name                    : The.Oregonian.2011.VODRiP.XviD.AC3-SiC.avi
Format                           : AVI
Format/Info                      : Audio Video Interleave
File size                        : 1.37 GiB
Duration                         : 1h 20mn
Overall bit rate                 : 2 431 Kbps

Video
ID                               : 0
Format                           : MPEG-4 Visual
Format profile                   : Advanced Simple@L5
Format settings, BVOP            : 2
Format settings, QPel            : No
Format settings, GMC             : No warppoints
Format settings, Matrix          : Default (H.263)
Muxing mode                      : Packed bitstream
Codec ID                         : XVID
Codec ID/Hint                    : XviD
Duration                         : 1h 20mn
Bit rate                         : 2 231 Kbps
Width                            : 720 pixels
Height                           : 400 pixels
Display aspect ratio             : 16:9
Frame rate                       : 23.976 fps
Color space                      : YUV
Chroma subsampling               : 4:2:0
Bit depth                        : 8 bits
Scan type                        : Progressive
Compression mode                 : Lossy
Bits/(Pixel*Frame)               : 0.323
Stream size                      : 1.26 GiB (92%)
Writing library                  : XviD 1.1.2 (UTC 2006-11-01)

Audio
ID                               : 1
Format                           : AC-3
Format/Info                      : Audio Coding 3
Mode extension                   : CM (complete main)
Codec ID                         : 2000
Duration                         : 1h 20mn
Bit rate mode                    : Constant
Bit rate                         : 192 Kbps
Channel(s)                       : 2 channels
Channel positions                : Front: L R
Sampling rate                    : 48.0 KHz
Bit depth                        : 16 bits
Compression mode                 : Lossy
Stream size                      : 111 MiB (8%)
Alignment                        : Aligned on interleaves
Interleave, duration             : 64 ms (1.53 video frames)
Interleave, preload duration     : 192 ms
Title                            : oregonian

Screenshots:
[IMG]http://img593.imageshack.us/img593/1808/scrncp00001.png[/IMG]
[IMG]http://img828.imageshack.us/img828/6675/scrncp00002.png[/IMG]
[IMG]http://img821.imageshack.us/img821/6869/scrncp00008.png[/IMG]
[IMG]http://img20.imageshack.us/img20/4189/scrncp00009.png[/IMG]
[IMG]http://img31.imageshack.us/img31/9273/scrncp00011.png[/IMG]

Note : Encoded from a wmv Digital VOD Rental. Did the usual stuff, turned out nice.

Source: wmv Digital VOD Rental / Our Own

Enjoy!

Respects to T00NG0D, ELEKTRI4KA, PA, YeFsTe, Box, MrRep and everyone in the struggle...